<svg height="1006" width="720" xmlns="http://www.w3.org/2000/svg">
<rect height="1006" fill="#555" width="720"></rect>
<text fill="#7f7" font-family="Courier New" font-size="12" xml:space="preserve">
<tspan x="10" y="26">15 megabytes installed</tspan>
<tspan x="10" y="42"></tspan>
<tspan x="10" y="58">node_modules</tspan>
<tspan x="10" y="74">└─┬ myth@1.5.0 </tspan>
<tspan x="10" y="90">  ├─┬ autoprefixer-core@5.2.1 </tspan>
<tspan x="10" y="106">  │ ├── browserslist@0.4.0 </tspan>
<tspan x="10" y="122">  │ ├── caniuse-db@1.0.30000657 </tspan>
<tspan x="10" y="138">  │ └── num2fraction@1.2.2 </tspan>
<tspan x="10" y="154">  ├─┬ clone-component@0.2.2 </tspan>
<tspan x="10" y="170">  │ └── component-type@1.2.1 </tspan>
<tspan x="10" y="186">  ├── colors@0.6.2 </tspan>
<tspan x="10" y="202">  ├─┬ commander@2.9.0 </tspan>
<tspan x="10" y="218">  │ └── graceful-readlink@1.0.1 </tspan>
<tspan x="10" y="234">  ├── is-browser@2.0.1 </tspan>
<tspan x="10" y="250">  ├── node-watch@0.3.5 </tspan>
<tspan x="10" y="266">  ├── pad-component@0.0.1 </tspan>
<tspan x="10" y="282">  ├─┬ postcss@4.1.16 </tspan>
<tspan x="10" y="298">  │ ├── es6-promise@2.3.0 </tspan>
<tspan x="10" y="314">  │ ├── js-base64@2.1.9 </tspan>
<tspan x="10" y="330">  │ └─┬ source-map@0.4.4 </tspan>
<tspan x="10" y="346">  │   └── amdefine@1.0.1 </tspan>
<tspan x="10" y="362">  ├─┬ read-file-stdin@0.2.1 </tspan>
<tspan x="10" y="378">  │ └── gather-stream@1.0.0 </tspan>
<tspan x="10" y="394">  ├─┬ rework@1.0.1 </tspan>
<tspan x="10" y="410">  │ ├── convert-source-map@0.3.5 </tspan>
<tspan x="10" y="426">  │ └─┬ css@2.2.1 </tspan>
<tspan x="10" y="442">  │   ├── inherits@2.0.3 </tspan>
<tspan x="10" y="458">  │   ├── source-map@0.1.43 </tspan>
<tspan x="10" y="474">  │   ├─┬ source-map-resolve@0.3.1 </tspan>
<tspan x="10" y="490">  │   │ ├── atob@1.1.3 </tspan>
<tspan x="10" y="506">  │   │ ├── resolve-url@0.2.1 </tspan>
<tspan x="10" y="522">  │   │ └── source-map-url@0.3.0 </tspan>
<tspan x="10" y="538">  │   └── urix@0.1.0 </tspan>
<tspan x="10" y="554">  ├─┬ rework-calc@1.1.0 </tspan>
<tspan x="10" y="570">  │ ├── balanced-match@0.1.0 </tspan>
<tspan x="10" y="586">  │ └── rework-visit@1.0.0 </tspan>
<tspan x="10" y="602">  ├─┬ rework-color-function@1.2.1 </tspan>
<tspan x="10" y="618">  │ ├── balanced-match@0.0.0 </tspan>
<tspan x="10" y="634">  │ └─┬ css-color-function@1.3.0 </tspan>
<tspan x="10" y="650">  │   ├─┬ color@0.11.4 </tspan>
<tspan x="10" y="666">  │   │ ├── clone@1.0.2 </tspan>
<tspan x="10" y="682">  │   │ ├─┬ color-convert@1.9.0 </tspan>
<tspan x="10" y="698">  │   │ │ └── color-name@1.1.2 </tspan>
<tspan x="10" y="714">  │   │ └── color-string@0.3.0 </tspan>
<tspan x="10" y="730">  │   ├── debug@0.7.4 </tspan>
<tspan x="10" y="746">  │   └── rgb@0.1.0 </tspan>
<tspan x="10" y="762">  ├── rework-custom-media@0.1.1 </tspan>
<tspan x="10" y="778">  ├── rework-font-variant@1.0.1 </tspan>
<tspan x="10" y="794">  ├─┬ rework-hex-alpha@1.0.0 </tspan>
<tspan x="10" y="810">  │ └── rgb@0.0.1 </tspan>
<tspan x="10" y="826">  ├─┬ rework-import@1.2.1 </tspan>
<tspan x="10" y="842">  │ ├── find-file@0.1.4 </tspan>
<tspan x="10" y="858">  │ └── parse-import@0.1.3 </tspan>
<tspan x="10" y="874">  ├── rework-rebeccapurple@1.0.1 </tspan>
<tspan x="10" y="890">  ├── rework-vars@3.1.1 </tspan>
<tspan x="10" y="906">  ├─┬ to-slug-case@0.1.2 </tspan>
<tspan x="10" y="922">  │ └─┬ to-space-case@0.1.2 </tspan>
<tspan x="10" y="938">  │   └── to-no-case@0.1.1 </tspan>
<tspan x="10" y="954">  ├─┬ to-space-case@0.1.3 </tspan>
<tspan x="10" y="970">  │ └── to-no-case@0.1.2 </tspan>
<tspan x="10" y="986">  └── write-file-stdout@0.0.2</tspan>
</text>
</svg>
